<?xml version="1.0" standalone="no"?><!DOCTYPE svg PUBLIC "-//W3C//DTD SVG 1.1//EN" "http://www.w3.org/Graphics/SVG/1.1/DTD/svg11.dtd"><svg t="1780847589043" class="icon" viewBox="0 0 1024 1024" version="1.1" xmlns="http://www.w3.org/2000/svg" p-id="6458" xmlns:xlink="http://www.w3.org/1999/xlink" width="128" height="128"><path d="M0.025274 4.633484h1018.439819v1019.366516H0.025274z" fill-opacity="0" p-id="6459" fill="#d81e06"></path><path d="M420.282287 4.633484c37.067873 0 72.282353 16.217195 96.839819 44.0181a126.494118 126.494118 0 0 1 97.303168-44.0181h25.484162c60.698643 0 113.057014 43.091403 125.567421 102.4 94.059729 26.874208 158.928507 113.057014 159.391855 211.286878v7.876923c58.845249 41.238009 94.059729 108.423529 94.059729 180.242534s-35.21448 139.004525-94.059729 180.242534V695.022624c0 98.229864-65.332127 184.41267-159.391855 211.286878a127.976833 127.976833 0 0 1-125.104072 102.4h-25.484163c-37.067873 0-72.745701-16.217195-97.303167-44.018099-24.557466 28.264253-59.771946 44.0181-96.839819 44.018099h-25.484163a128.81086 128.81086 0 0 1-125.567421-102.4A221.017195 221.017195 0 0 1 109.3755 695.022624v-8.340271C50.530251 645.444344 15.315771 578.258824 15.315771 506.439819s35.21448-139.004525 94.059729-180.242534v-7.876923c0-98.229864 65.332127-184.41267 159.391855-211.286878A129.274208 129.274208 0 0 1 394.334776 4.633484h25.947511z m0 63.015385h-25.947511c-17.143891 0-33.824434 6.950226-46.334842 18.997285s-18.997285 28.727602-18.997285 46.334841v26.874209l-26.41086 4.170135a156.843439 156.843439 0 0 0-129.274208 136.224435 350.291403 350.291403 0 0 1 93.133032-12.973756v62.552036c-37.531222 0-74.599095 6.950226-109.350226 20.850679l-0.463349-0.926697-4.170135 2.780091c-42.164706 25.484163-69.965611 69.502262-74.599096 118.617194s13.437104 97.766516 50.041629 131.127602a156.797104 156.797104 0 0 1 138.541177-83.866063v62.552036c-50.504977 0-92.206335 39.847964-94.059729 90.352941V695.022624a157.075113 157.075113 0 0 0 130.664254 154.758371l26.41086 4.170136V880.361991c0 36.141176 29.19095 65.332127 65.332126 65.332127h25.484163c36.141176 0 65.332127-29.19095 65.332127-65.332127v-310.906787c0-51.895023-42.164706-94.059729-94.059729-94.059729V412.38009c35.21448 0 67.648869 11.58371 94.059729 31.507693V132.980995c0-36.141176-29.654299-65.332127-65.332127-65.332126z m219.627149 0h-25.484162c-17.143891 0-34.287783 6.950226-46.334842 18.997285s-19.460633 28.727602-19.460634 46.334841v311.370136c26.874208-20.38733 60.235294-31.507692 94.059729-31.507692v62.552036c-51.895023 0-94.059729 42.164706-94.059729 94.059729V880.361991c0 36.141176 29.654299 65.332127 65.795476 65.332127h25.484162c36.141176 0 65.332127-29.654299 65.332127-65.332127v-26.41086l26.41086-4.170136A156.704434 156.704434 0 0 0 861.853328 695.022624v-5.560181a94.013394 94.013394 0 0 0-94.059729-88.499547v-62.552036c57.918552 0 111.20362 31.971041 138.077828 82.939366 36.141176-33.824434 54.211765-82.476018 48.651584-131.127602s-33.361086-92.669683-75.525792-117.690497h-1.853393c-34.751131-14.363801-71.819005-21.777376-109.350227-21.777376V287.276018c31.507692 0 62.552036 4.170136 92.669684 12.047059a156.333756 156.333756 0 0 0-129.274209-135.297738l-25.947511-4.170135v-26.874209c0-17.143891-6.950226-33.824434-18.997285-46.334841a67.18552 67.18552 0 0 0-46.334842-18.997285z" fill="#d81e06" p-id="6460"></path></svg>